<svg width="90" height="90" xmlns="http://www.w3.org/2000/svg" xml:space="preserve">
 <g>
  <title>Layer 1</title>
  <g stroke="null" id="svg_1" class="white">
   <g stroke="null" id="svg_2" class="emblem">
    <path stroke="null" id="svg_3" fill="#064487" d="m49.8782,77.34054c-1.2,-0.4 -3.2,-0.5 -4.9,0.9c-1.7,-1.4 -3.7,-1.3 -4.9,-0.9c-1,0.4 -1.8,0.6 -3.3,0.6c1.5,3 4.6,5.1 8.2,5.1s6.7,-2.1 8.2,-5.1c-1.5,0 -2.3,-0.3 -3.3,-0.6"/>
    <path stroke="null" id="svg_4" fill="#064487" d="m44.9782,0.54054c-24.7,0 -44.8,20 -44.8,44.7c0,21.2 14.7,38.9 34.5,43.6c-15.7,-8.4 -22.1,-27.7 -14.5,-43.8c1.2,6.4 5.4,12.1 11.6,15c-8.1,-18.9 -2.1,-41.2 14.6,-53.5c-3.3,11.2 1.7,21.5 12.6,29.3c12.4,8.9 12.9,27.1 2,36.9c4.3,-1 8.4,-3.4 11.4,-7.1c-1.9,9.6 -7.9,18.3 -17.1,23.2c19.8,-4.6 34.5,-22.4 34.5,-43.6c0,-24.7 -20.1,-44.7 -44.8,-44.7"/>
   </g>
   <g stroke="null" id="svg_5" class="paris2024">
    <path stroke="null" id="svg_6" fill="#064487" d="m112.8782,104.44054l0,4.6c-1,-0.7 -2.3,-0.9 -3.4,-1.6c-0.9,-0.5 -1.2,-1.5 -1.2,-2.5l0,-4.2l-2.2,0l0,4.2c0,1.4 0.4,2.9 1.6,3.8c0.8,0.6 1.7,0.9 2.6,1.2c0.8,0.3 1.7,0.6 2.2,1.3c0.4,0.5 0.5,1.1 0.5,1.8l0,1.3l2.1,0l0,-9.9l-2.2,0zm-15.3,3.7c0.5,-0.6 1,-1.2 1.3,-1.9q0.45,-1.05 0.3,-2.1c-0.2,-1.4 -1.2,-2.6 -2.5,-3.1c-1.3,-0.6 -3,-0.6 -4.3,0.1c-1.3,0.6 -2.2,1.9 -2.3,3.3c-0.1,1.5 0.6,2.8 1.8,3.7l1.2,-1.5c-0.4,-0.4 -0.8,-0.9 -0.9,-1.5s0,-1.1 0.4,-1.6c0.7,-0.9 2.1,-1.2 3.2,-0.7c0.5,0.3 1,0.7 1.1,1.2c0.2,0.6 0.1,1.2 -0.1,1.7c-0.3,0.5 -0.6,1 -1,1.5c-1.5,1.8 -2.9,3.5 -4.4,5.3c-0.5,0.6 -1,1.3 -1.6,1.9l9.8,0l0,-1.9l-5.6,0l3.6,-4.4zm-16.5,1.4c-0.8,1.9 -2.9,3.2 -5,3c-2.1,-0.1 -3.9,-1.6 -4.5,-3.5c-0.6,-2 0.1,-4.2 1.8,-5.5s4.1,-1.3 5.9,-0.1c2,1.3 2.8,3.9 1.8,6.1m0.5,-7c-2.2,-2.1 -5.6,-2.6 -8.3,-1.4c-2.8,1.2 -4.4,4.1 -4.2,7c0.3,2.9 2.5,5.4 5.4,6.1s6.2,-0.3 7.9,-2.8c1.8,-2.4 1.7,-5.8 -0.1,-8.2c-0.2,-0.2 -0.5,-0.4 -0.7,-0.7m-20.5,5.6c0.5,-0.6 1,-1.2 1.3,-1.9q0.45,-1.05 0.3,-2.1c-0.2,-1.4 -1.2,-2.6 -2.5,-3.1c-1.3,-0.6 -3,-0.6 -4.3,0.1c-1.3,0.6 -2.2,1.9 -2.3,3.3c-0.1,1.5 0.6,2.8 1.8,3.7l1.2,-1.5c-0.4,-0.4 -0.8,-0.9 -0.9,-1.5s0,-1.1 0.4,-1.6c0.7,-0.9 2.1,-1.2 3.2,-0.7c0.5,0.3 1,0.7 1.1,1.2c0.2,0.6 0.1,1.2 -0.1,1.7c-0.3,0.5 -0.6,1 -1,1.5c-1.5,1.8 -2.9,3.5 -4.4,5.3l-1.6,1.9l9.8,0l0,-1.9l-5.6,0l3.6,-4.4zm-20.2,-0.3c-0.8,-0.6 -1.7,-0.9 -2.6,-1.3c-0.9,-0.3 -1.8,-0.6 -2.5,-1.3c-0.6,-0.6 -0.4,-1.6 0.1,-2.2c0.6,-0.6 1.6,-0.7 2.4,-0.5c0.9,0.3 1.5,1.1 1.5,2l2.2,0c0,-1 -0.3,-1.9 -1,-2.7c-0.7,-0.7 -1.6,-1.1 -2.6,-1.3c-1,-0.1 -2.1,0 -3,0.5s-1.6,1.2 -1.9,2.1s-0.2,2 0.2,2.8c0.5,0.9 1.4,1.4 2.4,1.8s2.2,0.7 3.2,1.3c0.4,0.3 0.7,0.6 0.8,1s0.1,0.9 -0.1,1.3c-0.5,1 -1.8,1.3 -2.8,1.1c-1.1,-0.2 -2,-1.1 -2,-2.3l-2.1,0c0,1.1 0.4,2.1 1.2,2.9s1.9,1.2 3.1,1.3s2.4,-0.1 3.4,-0.8c0.9,-0.6 1.5,-1.6 1.6,-2.6c-0.1,-1.1 -0.5,-2.3 -1.5,-3.1m-16.7,-4l0,10.5l2.2,0l0,-10.8c-0.8,0 -1.5,0.1 -2.2,0.3m0,-1.2c0.7,-0.2 1.4,-0.3 2.2,-0.3l0,-1.6l-2.2,0l0,1.9zm-12.4,0.1c1.4,0 2.8,0.7 2.9,2.1c0.1,0.7 -0.1,1.4 -0.6,1.9c-0.5,0.6 -1.3,0.9 -2,1.3c-0.9,0.4 -1.7,0.8 -2.5,1.5l0,-6.8l2.2,0zm3.3,6.5c-0.2,-0.1 -0.5,-0.2 -0.8,-0.3c0.7,-0.4 1.4,-0.8 1.9,-1.4c0.4,-0.6 0.7,-1.2 0.8,-1.9c0.2,-1.5 -0.3,-2.9 -1.6,-3.8c-1.7,-1.2 -3.8,-1 -5.8,-1l-2.1,0l0,13.6l2.2,0l0,-1.2c0,-0.9 0.5,-1.8 1.3,-2.2c0.8,-0.5 1.9,-0.5 2.7,-0.2c0.8,0.4 1.4,1.2 1.5,2c0.1,0.5 0,1.1 0,1.6l2.2,0c0,-0.7 0,-1.5 -0.1,-2.2c-0.3,-1.3 -1.1,-2.4 -2.2,-3m-17.1,0c-1.3,-1.3 -3.2,-1.7 -5,-1.4l0,-2.2c0,-0.4 0,-0.8 0.1,-1.2c0.2,-0.8 0.8,-1.4 1.6,-1.6c0.8,-0.3 1.7,-0.1 2.4,0.4s1,1.3 1,2.1l0,4.2c0,-0.2 -0.1,-0.3 -0.1,-0.3m0,-8.1c-1.9,-1 -4.6,-0.7 -6,0.9c-0.7,0.8 -1.1,1.8 -1.1,2.8l0,9.5l2.1,0l0,-4.5c1.3,-0.2 2.7,0 3.8,0.7c1,0.7 1.4,1.7 1.4,2.8l0,0.9l2.2,0l0,-9.1c-0.1,-1.6 -0.8,-3.2 -2.4,-4m-16.1,5.4c-0.5,0.7 -1.4,1.2 -2.2,1.6c-0.9,0.4 -1.8,0.9 -2.5,1.5l0,-6.8l2.1,0c1.2,0 2.4,0.3 2.9,1.5c0.2,0.6 0.1,1.5 -0.3,2.2m0.1,-5.2c-1,-0.5 -2.2,-0.5 -3.3,-0.5l-3.7,0l0,13.6l2.2,0c0,-0.8 -0.1,-1.6 0.3,-2.3c0.5,-1.2 1.8,-1.7 2.9,-2.2c1.2,-0.6 2.5,-1.1 3.3,-2.2c0.7,-1 0.9,-2.2 0.7,-3.4c-0.2,-1.4 -1.2,-2.5 -2.4,-3"/>
   </g>
   <g stroke="null" id="svg_7" class="olympics fade">
    <circle stroke="#fff!important" id="svg_8" class="ring blue" stroke-width="2" stroke-miterlimit="10" fill="#064487" r="10.5" cy="138.34054" cx="19.8782"/>
    <circle stroke="#fff!important" id="svg_9" class="ring black" stroke-width="2" stroke-miterlimit="10" fill="#064487" r="10.5" cy="138.34054" cx="44.9782"/>
    <circle stroke="#fff!important" id="svg_10" class="ring red" stroke-width="2" stroke-miterlimit="10" fill="#064487" r="10.5" cy="138.34054" cx="69.9782"/>
    <circle stroke="#fff!important" id="svg_11" class="ring yellow" stroke-width="2" stroke-miterlimit="10" fill="#064487" r="10.5" cy="149.04054" cx="32.2782"/>
    <circle stroke="#fff!important" id="svg_12" class="ring green" stroke-width="2" stroke-miterlimit="10" fill="#064487" r="10.5" cy="149.04054" cx="57.4782"/>
   </g>
  </g>
 </g>

</svg>